<svg width="42" height="41" viewBox="0 0 42 41" fill="none" xmlns="http://www.w3.org/2000/svg">
<path fill-rule="evenodd" clip-rule="evenodd" d="M33.5639 26.7968L29.527 30.6695C27.9946 32.0362 26.1809 33.0558 24.2098 33.6537C21.9805 34.33 19.6188 34.446 17.3339 33.9915C15.049 33.537 12.9115 32.526 11.1107 31.0481C9.30985 29.5702 7.9013 27.671 7.00978 25.5187C6.11827 23.3664 5.77132 21.0275 5.99967 18.709C6.22801 16.3906 7.0246 14.1643 8.31887 12.2273C9.61315 10.2903 11.3652 8.70235 13.4197 7.60417C15.4743 6.50598 17.7679 5.93145 20.0976 5.93145V5.92992C22.7067 5.94205 25.2063 6.98376 27.0522 8.82959C28.9089 10.6863 29.9519 13.2045 29.9519 15.8303C29.9519 18.456 28.9089 20.9743 27.0522 22.831C25.4679 24.4153 23.4019 25.4072 21.1985 25.6641V10.2782H15.5088V27.898H20.0515V27.8981H15.5088V31.6606H20.0973V31.6605C24.2792 31.6484 28.2872 29.9819 31.2452 27.024C34.2139 24.0552 35.8818 20.0287 35.8818 15.8303C35.8818 11.6318 34.2139 7.60533 31.2452 4.63658C28.2873 1.6787 24.2794 0.0122282 20.0976 6.70317e-05V0L20.0732 1.48233e-05L20.0515 0V5.28623e-05C16.7623 0.0075962 13.5249 0.822343 10.6236 2.3731C7.70884 3.93109 5.22325 6.1839 3.38706 8.93196C1.55086 11.68 0.420734 14.8385 0.0967804 18.1277C-0.227173 21.4168 0.265048 24.7351 1.52984 27.7886C2.79464 30.8421 4.79296 33.5365 7.34781 35.6332C9.90266 37.7299 12.9352 39.1642 16.1767 39.809C19.4183 40.4538 22.7688 40.2892 25.9316 39.3298C28.7663 38.4699 31.3716 36.9953 33.5642 35.0161L37.894 39.5295L41.9999 35.5907L33.5639 26.7968Z" fill="#0BB870"/>
</svg>
