<svg width="1440" height="66" viewBox="0 0 1440 66" fill="none" xmlns="http://www.w3.org/2000/svg">
<rect x="844.292" y="37.1183" width="26" height="40" rx="11.5" transform="rotate(110.342 844.292 37.1183)" stroke="#111312" stroke-width="5"/>
<rect x="906.034" y="28.1761" width="26" height="40" rx="11.5" transform="rotate(89.243 906.034 28.1761)" stroke="#111312" stroke-width="5"/>
<rect x="974.926" y="31.7757" width="26" height="40" rx="11.5" transform="rotate(97.9055 974.926 31.7757)" stroke="#111312" stroke-width="5"/>
<rect x="1039.9" y="25.5903" width="26" height="40" rx="11.5" transform="rotate(78.5357 1039.9 25.5903)" stroke="#111312" stroke-width="5"/>
<rect x="1110.58" y="29.2506" width="26" height="40" rx="11.5" transform="rotate(87.485 1110.58 29.2506)" stroke="#111312" stroke-width="5"/>
<rect x="1181.9" y="36.0801" width="26" height="40" rx="11.5" transform="rotate(102.217 1181.9 36.0801)" stroke="#111312" stroke-width="5"/>
<rect x="1247.42" y="31.2036" width="26" height="40" rx="11.5" transform="rotate(88.6021 1247.42 31.2036)" stroke="#111312" stroke-width="5"/>
<rect x="1313.13" y="29.396" width="26" height="40" rx="11.5" transform="rotate(83.8688 1313.13 29.396)" stroke="#111312" stroke-width="5"/>
<rect x="1382.4" y="34.0286" width="26" height="40" rx="11.5" transform="rotate(92.5716 1382.4 34.0286)" stroke="#111312" stroke-width="5"/>
<rect x="1447.36" y="29.5131" width="26" height="40" rx="11.5" transform="rotate(80.7374 1447.36 29.5131)" stroke="#111312" stroke-width="5"/>
<rect x="809.319" y="42.1479" width="2.5" height="42.3172" rx="1.25" transform="rotate(76.8922 809.319 42.1479)" stroke="#111312" stroke-width="2.5"/>
<rect x="766.191" y="49.8485" width="44.8172" height="1" transform="rotate(-13.1078 766.191 49.8485)" fill="#E5F6EF"/>
<rect x="767.552" y="55.6921" width="44.8172" height="1" transform="rotate(-13.1078 767.552 55.6921)" fill="#E5F6EF"/>
<rect x="873.983" y="44.0316" width="2.5" height="42.3172" rx="1.25" transform="rotate(85.3925 873.983 44.0316)" stroke="#111312" stroke-width="2.5"/>
<rect x="830.191" y="45.2728" width="44.8172" height="1" transform="rotate(-4.6075 830.191 45.2728)" fill="#E5F6EF"/>
<rect x="830.674" y="51.2534" width="44.8172" height="1" transform="rotate(-4.6075 830.674 51.2534)" fill="#E5F6EF"/>
<rect x="939.942" y="39.9242" width="2.5" height="42.3172" rx="1.25" transform="rotate(89.9872 939.942 39.9242)" stroke="#111312" stroke-width="2.5"/>
<rect x="896.191" y="37.6534" width="44.8172" height="1" transform="rotate(-0.0128118 896.191 37.6534)" fill="#E5F6EF"/>
<rect x="896.192" y="43.6534" width="44.8172" height="1" transform="rotate(-0.0128118 896.192 43.6534)" fill="#E5F6EF"/>
<rect x="1009" y="42.0088" width="2.5" height="42.3172" rx="1.25" transform="rotate(86.4274 1009 42.0088)" stroke="#111312" stroke-width="2.5"/>
<rect x="965.191" y="42.4589" width="44.8172" height="1" transform="rotate(-3.57256 965.191 42.4589)" fill="#E5F6EF"/>
<rect x="965.565" y="48.4471" width="44.8172" height="1" transform="rotate(-3.57256 965.565 48.4471)" fill="#E5F6EF"/>
<rect x="1077.17" y="43.1635" width="2.5" height="42.3172" rx="1.25" transform="rotate(94.2548 1077.17 43.1635)" stroke="#111312" stroke-width="2.5"/>
<rect x="1033.71" y="37.6433" width="44.8172" height="1" transform="rotate(4.25483 1033.71 37.6433)" fill="#E5F6EF"/>
<rect x="1033.27" y="43.6268" width="44.8172" height="1" transform="rotate(4.25483 1033.27 43.6268)" fill="#E5F6EF"/>
<rect x="1145.96" y="43.0946" width="2.5" height="42.3172" rx="1.25" transform="rotate(90.2237 1145.96 43.0946)" stroke="#111312" stroke-width="2.5"/>
<rect x="1102.22" y="40.6433" width="44.8172" height="1" transform="rotate(0.22374 1102.22 40.6433)" fill="#E5F6EF"/>
<rect x="1102.2" y="46.6433" width="44.8172" height="1" transform="rotate(0.22374 1102.2 46.6433)" fill="#E5F6EF"/>
<rect x="1213" y="43.9972" width="2.5" height="42.3172" rx="1.25" transform="rotate(86.9321 1213 43.9972)" stroke="#111312" stroke-width="2.5"/>
<rect x="1169.19" y="44.0615" width="44.8172" height="1" transform="rotate(-3.06792 1169.19 44.0615)" fill="#E5F6EF"/>
<rect x="1169.51" y="50.053" width="44.8172" height="1" transform="rotate(-3.06792 1169.51 50.053)" fill="#E5F6EF"/>
<rect x="1282.13" y="45.7981" width="2.5" height="42.3172" rx="1.25" transform="rotate(91.8134 1282.13 45.7981)" stroke="#111312" stroke-width="2.5"/>
<rect x="1238.47" y="42.1343" width="44.8172" height="1" transform="rotate(1.81336 1238.47 42.1343)" fill="#E5F6EF"/>
<rect x="1238.28" y="48.1312" width="44.8172" height="1" transform="rotate(1.81336 1238.28 48.1312)" fill="#E5F6EF"/>
<rect x="1349.2" y="45.609" width="2.5" height="42.3172" rx="1.25" transform="rotate(96.1649 1349.2 45.609)" stroke="#111312" stroke-width="2.5"/>
<rect x="1305.94" y="38.6433" width="44.8172" height="1" transform="rotate(6.16493 1305.94 38.6433)" fill="#E5F6EF"/>
<rect x="1305.3" y="44.6086" width="44.8172" height="1" transform="rotate(6.16493 1305.3 44.6086)" fill="#E5F6EF"/>
<rect x="1417" y="45.0082" width="2.5" height="42.3172" rx="1.25" transform="rotate(86.4502 1417 45.0082)" stroke="#111312" stroke-width="2.5"/>
<rect x="1373.19" y="45.4409" width="44.8172" height="1" transform="rotate(-3.54982 1373.19 45.4409)" fill="#E5F6EF"/>
<rect x="1373.56" y="51.4294" width="44.8172" height="1" transform="rotate(-3.54982 1373.56 51.4294)" fill="#E5F6EF"/>
<rect x="163.492" y="23.9391" width="26" height="40" rx="11.5" transform="rotate(78.7679 163.492 23.9391)" stroke="#111312" stroke-width="5"/>
<rect x="234.056" y="31.5823" width="26" height="40" rx="11.5" transform="rotate(88.0803 234.056 31.5823)" stroke="#111312" stroke-width="5"/>
<rect x="98.5739" y="34.888" width="26" height="40" rx="11.5" transform="rotate(95.9445 98.5739 34.888)" stroke="#111312" stroke-width="5"/>
<rect x="27.4978" y="29.7782" width="26" height="40" rx="11.5" transform="rotate(83.2069 27.4978 29.7782)" stroke="#111312" stroke-width="5"/>
<rect x="305.671" y="36.7765" width="26" height="40" rx="11.5" transform="rotate(104.097 305.671 36.7765)" stroke="#111312" stroke-width="5"/>
<rect x="371.265" y="29.7005" width="26" height="40" rx="11.5" transform="rotate(85.1981 371.265 29.7005)" stroke="#111312" stroke-width="5"/>
<rect x="440.274" y="33.3455" width="26" height="40" rx="11.5" transform="rotate(93.4389 440.274 33.3455)" stroke="#111312" stroke-width="5"/>
<rect x="509.337" y="34.0807" width="26" height="40" rx="11.5" transform="rotate(98.9494 509.337 34.0807)" stroke="#111312" stroke-width="5"/>
<rect x="643.396" y="33.9488" width="26" height="40" rx="11.5" transform="rotate(96.0273 643.396 33.9488)" stroke="#111312" stroke-width="5"/>
<rect x="574.753" y="30.5767" width="26" height="40" rx="11.5" transform="rotate(88.2143 574.753 30.5767)" stroke="#111312" stroke-width="5"/>
<rect x="132.949" y="41.6765" width="2.5" height="42.3172" rx="1.25" transform="rotate(83.7249 132.949 41.6765)" stroke="#111312" stroke-width="2.5"/>
<rect x="89.2119" y="44.1917" width="44.8172" height="1" transform="rotate(-6.27512 89.2119 44.1917)" fill="#E5F6EF"/>
<rect x="89.8682" y="50.1558" width="44.8172" height="1" transform="rotate(-6.27512 89.8682 50.1558)" fill="#E5F6EF"/>
<rect x="201.194" y="42.8268" width="2.5" height="42.3172" rx="1.25" transform="rotate(95.981 201.194 42.8268)" stroke="#111312" stroke-width="2.5"/>
<rect x="157.92" y="36" width="44.8172" height="1" transform="rotate(5.98097 157.92 36)" fill="#E5F6EF"/>
<rect x="157.295" y="41.9673" width="44.8172" height="1" transform="rotate(5.98097 157.295 41.9673)" fill="#E5F6EF"/>
<rect x="271.001" y="42.3553" width="2.5" height="42.3172" rx="1.25" transform="rotate(86.8693 271.001 42.3553)" stroke="#111312" stroke-width="2.5"/>
<rect x="227.191" y="42.4677" width="44.8172" height="1" transform="rotate(-3.13073 227.191 42.4677)" fill="#E5F6EF"/>
<rect x="227.52" y="48.4587" width="44.8172" height="1" transform="rotate(-3.13073 227.52 48.4587)" fill="#E5F6EF"/>
<rect x="338.12" y="45.9551" width="2.5" height="42.3172" rx="1.25" transform="rotate(91.2071 338.12 45.9551)" stroke="#111312" stroke-width="2.5"/>
<rect x="294.428" y="42.7534" width="44.8172" height="1" transform="rotate(1.20705 294.428 42.7534)" fill="#E5F6EF"/>
<rect x="294.302" y="48.7521" width="44.8172" height="1" transform="rotate(1.20705 294.302 48.7521)" fill="#E5F6EF"/>
<rect x="407.19" y="45.2968" width="2.5" height="42.3172" rx="1.25" transform="rotate(95.2799 407.19 45.2968)" stroke="#111312" stroke-width="2.5"/>
<rect x="363.836" y="39" width="44.8172" height="1" transform="rotate(5.27995 363.836 39)" fill="#E5F6EF"/>
<rect x="363.284" y="44.9745" width="44.8172" height="1" transform="rotate(5.27995 363.284 44.9745)" fill="#E5F6EF"/>
<rect x="475" y="42.3611" width="2.5" height="42.3172" rx="1.25" transform="rotate(86.6166 475 42.3611)" stroke="#111312" stroke-width="2.5"/>
<rect x="431.191" y="42.6666" width="44.8172" height="1" transform="rotate(-3.38341 431.191 42.6666)" fill="#E5F6EF"/>
<rect x="431.546" y="48.6561" width="44.8172" height="1" transform="rotate(-3.38341 431.546 48.6561)" fill="#E5F6EF"/>
<rect x="542.973" y="46.5902" width="2.5" height="42.3172" rx="1.25" transform="rotate(90.4057 542.973 46.5902)" stroke="#111312" stroke-width="2.5"/>
<rect x="499.24" y="44" width="44.8172" height="1" transform="rotate(0.405708 499.24 44)" fill="#E5F6EF"/>
<rect x="499.197" y="49.9999" width="44.8172" height="1" transform="rotate(0.405708 499.197 49.9999)" fill="#E5F6EF"/>
<rect x="610.179" y="45.7624" width="2.5" height="42.3172" rx="1.25" transform="rotate(94.5744 610.179 45.7624)" stroke="#111312" stroke-width="2.5"/>
<rect x="566.75" y="40" width="44.8172" height="1" transform="rotate(4.57436 566.75 40)" fill="#E5F6EF"/>
<rect x="566.271" y="45.9808" width="44.8172" height="1" transform="rotate(4.57436 566.271 45.9808)" fill="#E5F6EF"/>
<rect x="676.124" y="49.3848" width="2.5" height="42.3172" rx="1.25" transform="rotate(99.3858 676.124 49.3848)" stroke="#111312" stroke-width="2.5"/>
<rect x="633.332" y="40" width="44.8172" height="1" transform="rotate(9.38575 633.332 40)" fill="#E5F6EF"/>
<rect x="632.354" y="45.9197" width="44.8172" height="1" transform="rotate(9.38575 632.354 45.9197)" fill="#E5F6EF"/>
<rect x="62.9956" y="42.3322" width="2.5" height="42.3172" rx="1.25" transform="rotate(87.8689 62.9956 42.3322)" stroke="#111312" stroke-width="2.5"/>
<rect x="19.1914" y="41.6802" width="44.8172" height="1" transform="rotate(-2.13113 19.1914 41.6802)" fill="#E5F6EF"/>
<rect x="19.4141" y="47.676" width="44.8172" height="1" transform="rotate(-2.13113 19.4141 47.676)" fill="#E5F6EF"/>
<path fill-rule="evenodd" clip-rule="evenodd" d="M703.116 58.8351C706.293 56.8239 708.655 53.5466 709.395 49.5587L709.942 46.609C711.352 39.0067 706.332 31.7006 698.73 30.2904L697.164 30L698.258 35.2994C702.897 36.3982 705.905 40.9581 705.026 45.6971L704.478 48.6467C704.133 50.5095 703.237 52.1311 701.989 53.3745L703.116 58.8351Z" fill="#111312"/>
<rect x="675.191" y="25" width="25.8" height="15" fill="#E5F6EF"/>
<rect x="673.189" y="31.4595" width="14.1931" height="5" transform="rotate(-22.1483 673.189 31.4595)" fill="#111312"/>
<rect x="697.092" y="28.3632" width="8.5047" height="5" transform="rotate(30.9127 697.092 28.3632)" fill="#111312"/>
<path fill-rule="evenodd" clip-rule="evenodd" d="M675.191 30.8583C668.901 32.3166 664.261 38.0044 664.369 44.721L664.417 47.7206C664.541 55.4516 670.909 61.6181 678.64 61.4939L695.638 61.2209C701.201 61.1315 705.954 57.8091 708.136 53.0722L702.186 53.1495C700.569 54.9967 698.206 56.179 695.558 56.2215L678.56 56.4946C673.59 56.5744 669.496 52.6102 669.417 47.6403L669.368 44.6407C669.306 40.7378 671.737 37.3753 675.191 36.0727V30.8583Z" fill="#111312"/>
<path d="M693.387 19.394L699.508 6.87275L692.723 5.47249L693.387 19.394Z" fill="#111312"/>
<path d="M699.126 21.8344L711.511 15.4419L706.903 10.2684L699.126 21.8344Z" fill="#111312"/>
<path d="M687.283 20.0705L683.828 6.56806L677.753 9.89974L687.283 20.0705Z" fill="#111312"/>
</svg>
