<svg width="12" height="13" viewBox="0 0 12 13" fill="none" xmlns="http://www.w3.org/2000/svg">
<path d="M6.90084 5.59949C6.42303 5.12188 5.7751 4.85358 5.09951 4.85358C4.42392 4.85358 3.77599 5.12188 3.29817 5.59949L1.49626 7.40083C1.01844 7.87865 0.75 8.52671 0.75 9.20245C0.75 9.87819 1.01844 10.5263 1.49626 11.0041C1.97408 11.4819 2.62214 11.7503 3.29788 11.7503C3.97362 11.7503 4.62169 11.4819 5.09951 11.0041L6.00017 10.1034" stroke="#414946" stroke-linecap="round" stroke-linejoin="round"/>
<path d="M5.09961 7.40084C5.57742 7.87845 6.22535 8.14676 6.90094 8.14676C7.57653 8.14676 8.22446 7.87845 8.70228 7.40084L10.5042 5.59951C10.982 5.12169 11.2505 4.47362 11.2505 3.79788C11.2505 3.12214 10.982 2.47408 10.5042 1.99626C10.0264 1.51844 9.37831 1.25 8.70257 1.25C8.02683 1.25 7.37876 1.51844 6.90094 1.99626L6.00028 2.89692" stroke="#414946" stroke-linecap="round" stroke-linejoin="round"/>
</svg>
