<svg width="42" height="41" viewBox="0 0 42 41" fill="none" xmlns="http://www.w3.org/2000/svg">
<path d="M34.3087 34.3087C31.9717 36.6457 29.0943 38.3703 25.9316 39.3298C22.7688 40.2892 19.4183 40.4538 16.1767 39.809C12.9352 39.1642 9.90266 37.7299 7.34781 35.6332C4.79296 33.5365 2.79463 30.8421 1.52984 27.7886C0.265043 24.7351 -0.227178 21.4168 0.0967753 18.1277C0.420728 14.8385 1.55086 11.68 3.38705 8.93196C5.22325 6.1839 7.70884 3.93109 10.6236 2.3731C13.5385 0.815099 16.7925 -3.94125e-08 20.0976 0V5.93145C17.7679 5.93145 15.4743 6.50598 13.4197 7.60417C11.3652 8.70235 9.61314 10.2903 8.31887 12.2273C7.02459 14.1643 6.228 16.3906 5.99966 18.709C5.77132 21.0275 6.11827 23.3664 7.00978 25.5187C7.90129 27.671 9.30985 29.5702 11.1107 31.0481C12.9115 32.526 15.049 33.537 17.3339 33.9915C19.6188 34.446 21.9805 34.33 24.2098 33.6537C26.4391 32.9775 28.4672 31.7618 30.1145 30.1145L34.3087 34.3087Z" fill="#C4C4C4"/>
<path d="M20.0515 0C24.2499 5.0066e-08 28.2764 1.66783 31.2452 4.63658C34.2139 7.60533 35.8818 11.6318 35.8818 15.8303C35.8818 20.0287 34.2139 24.0552 31.2452 27.024C28.2764 29.9927 24.2499 31.6606 20.0515 31.6606L20.0515 25.7307C22.6772 25.7307 25.1955 24.6877 27.0522 22.831C28.9089 20.9743 29.9519 18.456 29.9519 15.8303C29.9519 13.2045 28.9089 10.6863 27.0522 8.82959C25.1955 6.97289 22.6772 5.92981 20.0515 5.92981V0Z" fill="#C4C4C4"/>
<path d="M13 9H19V31.7H13V9Z" fill="#C4C4C4"/>
<path d="M29.458 30.7356L33.5639 26.7968L41.9999 35.5906L37.894 39.5295L29.458 30.7356Z" fill="#C4C4C4"/>
<path d="M18.5 25.8H20.5V31.7H18.5V25.8Z" fill="#C4C4C4"/>
</svg>
