<svg width="20" height="20" viewBox="0 0 20 20" fill="none" xmlns="http://www.w3.org/2000/svg">
<path d="M6.207 18.207L15.5 8.914L11.086 4.5L1.793 13.793C1.66506 13.9211 1.57418 14.0814 1.53 14.257L0.5 19.5L5.742 18.47C5.918 18.426 6.079 18.335 6.207 18.207ZM18.5 5.914C18.8749 5.53895 19.0856 5.03033 19.0856 4.5C19.0856 3.96967 18.8749 3.46106 18.5 3.086L16.914 1.5C16.5389 1.12506 16.0303 0.914429 15.5 0.914429C14.9697 0.914429 14.4611 1.12506 14.086 1.5L12.5 3.086L16.914 7.5L18.5 5.914Z" fill="white"/>
</svg>
