<svg width="20" height="20" viewBox="0 0 20 20" fill="none" xmlns="http://www.w3.org/2000/svg">
<path d="M19.2865 10.8001L9.55317 1.06675C9.43047 0.941557 9.28429 0.841789 9.123 0.773152C8.9617 0.704516 8.78846 0.668358 8.61317 0.666748H1.99984C1.64622 0.666748 1.30708 0.807224 1.05703 1.05727C0.80698 1.30732 0.666504 1.64646 0.666504 2.00008V8.61341C0.667992 8.96647 0.809445 9.30451 1.05984 9.55341L10.7932 19.2867C10.917 19.4107 11.0641 19.5091 11.2259 19.5762C11.3878 19.6433 11.5613 19.6778 11.7365 19.6778C11.9117 19.6778 12.0852 19.6433 12.2471 19.5762C12.409 19.5091 12.556 19.4107 12.6798 19.2867L19.2798 12.6867C19.4042 12.5634 19.5031 12.4167 19.5708 12.255C19.6385 12.0934 19.6736 11.92 19.6742 11.7448C19.6748 11.5696 19.6409 11.396 19.5744 11.2338C19.5079 11.0717 19.41 10.9243 19.2865 10.8001ZM4.43317 5.54008C4.21429 5.54008 4.00033 5.47518 3.81834 5.35357C3.63635 5.23197 3.4945 5.05913 3.41074 4.85692C3.32698 4.6547 3.30507 4.43219 3.34777 4.21751C3.39047 4.00284 3.49587 3.80565 3.65064 3.65088C3.80541 3.49611 4.0026 3.39071 4.21727 3.34801C4.43194 3.30531 4.65446 3.32723 4.85667 3.41099C5.05889 3.49475 5.23173 3.63659 5.35333 3.81858C5.47493 4.00057 5.53984 4.21454 5.53984 4.43341C5.53984 4.72692 5.42324 5.00841 5.2157 5.21595C5.00816 5.42349 4.72668 5.54008 4.43317 5.54008Z" fill="black"/>
</svg>
