<svg width="9" height="10" viewBox="0 0 9 10" fill="none" xmlns="http://www.w3.org/2000/svg">
<path d="M1.2002 0.690022L4.5002 3.99002L7.8002 0.700022C7.86518 0.633912 7.94316 0.582002 8.02923 0.547577C8.11529 0.513151 8.20756 0.496958 8.30021 0.500022C8.48199 0.511786 8.65329 0.589313 8.7821 0.718126C8.91091 0.84694 8.98844 1.01823 9.00021 1.20002C9.00111 1.2894 8.98385 1.37804 8.94947 1.46055C8.91509 1.54306 8.86431 1.61773 8.80021 1.68002L5.4902 5.00002L8.80021 8.32002C8.93021 8.44602 9.00221 8.62002 9.00021 8.80002C8.98844 8.98181 8.91091 9.1531 8.7821 9.28192C8.65329 9.41073 8.48199 9.48826 8.30021 9.50002C8.20756 9.50309 8.11529 9.48689 8.02923 9.45247C7.94316 9.41804 7.86518 9.36613 7.8002 9.30002L4.5002 6.01002L1.2102 9.30002C1.14523 9.36613 1.06725 9.41804 0.981183 9.45247C0.895119 9.48689 0.802848 9.50309 0.710205 9.50002C0.525025 9.49038 0.34998 9.41249 0.218861 9.28137C0.0877412 9.15025 0.00984363 8.9752 0.000204678 8.79002C-0.000700125 8.70064 0.0165607 8.61201 0.0509402 8.5295C0.0853196 8.44698 0.136101 8.37232 0.200205 8.31002L3.5102 5.00002L0.190205 1.68002C0.127906 1.61689 0.0789727 1.54184 0.0463277 1.45937C0.0136827 1.3769 -0.00200405 1.28869 0.000204678 1.20002C0.011969 1.01823 0.0894958 0.84694 0.218309 0.718126C0.347122 0.589313 0.518416 0.511786 0.700205 0.500022C0.792127 0.495656 0.883963 0.510273 0.969987 0.542963C1.05601 0.575652 1.13438 0.625712 1.2002 0.690022V0.690022Z" fill="#B1B1B1"/>
</svg>
